<?xml version="1.0" encoding="UTF-8"?>
<!DOCTYPE svg PUBLIC "-//W3C//DTD SVG 1.1//EN" "http://www.w3.org/Graphics/SVG/1.1/DTD/svg11.dtd">
<svg xmlns="http://www.w3.org/2000/svg" version="1.1" width="227px" height="120px" style="shape-rendering:geometricPrecision; text-rendering:geometricPrecision; image-rendering:optimizeQuality; fill-rule:evenodd; clip-rule:evenodd" xmlns:xlink="http://www.w3.org/1999/xlink">
<g><path style="opacity:0.999" fill="#fbfbfc" d="M -0.5,-0.5 C 0.5,-0.5 1.5,-0.5 2.5,-0.5C 2.32842,0.491622 2.66175,1.15829 3.5,1.5C 4.49339,39.094 4.82673,76.7606 4.5,114.5C 9.64045,115.488 14.9738,115.821 20.5,115.5C 20.5,76.8333 20.5,38.1667 20.5,-0.5C 40.1667,-0.5 59.8333,-0.5 79.5,-0.5C 79.3284,0.491622 79.6618,1.15829 80.5,1.5C 81.6453,5.31121 81.8119,9.31121 81,13.5C 76.6354,47.4803 72.4687,81.4803 68.5,115.5C 73.5,115.5 78.5,115.5 83.5,115.5C 84.5785,110.107 84.5785,104.774 83.5,99.5C 90.6476,98.5084 97.9809,98.175 105.5,98.5C 106.815,103.744 107.482,109.077 107.5,114.5C 112.305,115.487 117.305,115.821 122.5,115.5C 122.813,111.958 122.479,108.625 121.5,105.5C 117.698,70.2953 113.365,35.2953 108.5,0.5C 108.5,0.166667 108.5,-0.166667 108.5,-0.5C 114.167,-0.5 119.833,-0.5 125.5,-0.5C 126.122,0.626561 126.955,1.62656 128,2.5C 128.5,39.8318 128.667,77.1652 128.5,114.5C 133.5,114.5 138.5,114.5 143.5,114.5C 143.667,99.4963 143.5,84.4963 143,69.5C 142.292,68.6195 141.458,67.9528 140.5,67.5C 142.607,66.5318 144.941,66.1984 147.5,66.5C 152.077,82.3643 156.411,98.3643 160.5,114.5C 165.68,115.815 171.014,115.815 176.5,114.5C 176.376,113.893 176.043,113.56 175.5,113.5C 171.628,98.1438 167.628,82.8105 163.5,67.5C 170.044,66.4524 174.21,62.7858 176,56.5C 176.667,40.5 176.667,24.5 176,8.5C 174.312,4.31481 171.479,1.31481 167.5,-0.5C 171.5,-0.5 175.5,-0.5 179.5,-0.5C 179.328,0.491622 179.662,1.15829 180.5,1.5C 180.833,2.16667 181.167,2.83333 181.5,3.5C 181.5,40.8333 181.5,78.1667 181.5,115.5C 195.167,115.5 208.833,115.5 222.5,115.5C 222.5,109.5 222.5,103.5 222.5,97.5C 214.167,97.5 205.833,97.5 197.5,97.5C 197.666,88.1607 197.5,78.8274 197,69.5C 195.745,68.7894 194.579,67.956 193.5,67C 200.826,66.5003 208.159,66.3337 215.5,66.5C 215.822,60.642 215.489,54.9753 214.5,49.5C 209.025,48.5111 203.358,48.1778 197.5,48.5C 197.827,38.985 197.494,29.6517 196.5,20.5C 195.373,19.8783 194.373,19.045 193.5,18C 203.161,17.5002 212.828,17.3335 222.5,17.5C 222.5,11.8333 222.5,6.16667 222.5,0.5C 222.5,0.166667 222.5,-0.166667 222.5,-0.5C 223.833,-0.5 225.167,-0.5 226.5,-0.5C 226.5,39.5 226.5,79.5 226.5,119.5C 150.833,119.5 75.1667,119.5 -0.5,119.5C -0.5,79.5 -0.5,39.5 -0.5,-0.5 Z"/></g>
<g><path style="opacity:1" fill="#5a5f90" d="M 2.5,-0.5 C 8.16667,-0.5 13.8333,-0.5 19.5,-0.5C 19.5,-0.166667 19.5,0.166667 19.5,0.5C 13.9738,0.178589 8.64045,0.511923 3.5,1.5C 2.66175,1.15829 2.32842,0.491622 2.5,-0.5 Z"/></g>
<g><path style="opacity:1" fill="#bbbfd2" d="M 79.5,-0.5 C 89.1667,-0.5 98.8333,-0.5 108.5,-0.5C 108.5,-0.166667 108.5,0.166667 108.5,0.5C 98.985,0.173106 89.6517,0.506439 80.5,1.5C 79.6618,1.15829 79.3284,0.491622 79.5,-0.5 Z"/></g>
<g><path style="opacity:1" fill="#b2b5cd" d="M 179.5,-0.5 C 193.833,-0.5 208.167,-0.5 222.5,-0.5C 222.5,-0.166667 222.5,0.166667 222.5,0.5C 208.323,0.17085 194.323,0.504183 180.5,1.5C 179.662,1.15829 179.328,0.491622 179.5,-0.5 Z"/></g>
<g><path style="opacity:1" fill="#050c54" d="M 19.5,0.5 C 19.5,38.5 19.5,76.5 19.5,114.5C 14.5,114.5 9.5,114.5 4.5,114.5C 4.82673,76.7606 4.49339,39.094 3.5,1.5C 8.64045,0.511923 13.9738,0.178589 19.5,0.5 Z"/></g>
<g><path style="opacity:1" fill="#979ab4" d="M 19.5,-0.5 C 19.8333,-0.5 20.1667,-0.5 20.5,-0.5C 20.5,38.1667 20.5,76.8333 20.5,115.5C 14.9738,115.821 9.64045,115.488 4.5,114.5C 9.5,114.5 14.5,114.5 19.5,114.5C 19.5,76.5 19.5,38.5 19.5,0.5C 19.5,0.166667 19.5,-0.166667 19.5,-0.5 Z"/></g>
<g><path style="opacity:1" fill="#0a0e55" d="M 32.5,0.5 C 43.8333,0.5 55.1667,0.5 66.5,0.5C 66.5,6.16667 66.5,11.8333 66.5,17.5C 56.8276,17.3335 47.1609,17.5002 37.5,18C 38.5786,18.956 39.7453,19.7894 41,20.5C 41.5,46.1645 41.6666,71.8312 41.5,97.5C 49.8333,97.5 58.1667,97.5 66.5,97.5C 66.5,103.5 66.5,109.5 66.5,115.5C 55.8281,115.667 45.1615,115.5 34.5,115C 30.6667,113.833 28.1667,111.333 27,107.5C 26.3333,73.8333 26.3333,40.1667 27,6.5C 28.3597,3.97739 30.193,1.97739 32.5,0.5 Z"/></g>
<g><path style="opacity:1" fill="#040b53" d="M 80.5,1.5 C 89.6517,0.506439 98.985,0.173106 108.5,0.5C 113.365,35.2953 117.698,70.2953 121.5,105.5C 121.5,108.5 121.5,111.5 121.5,114.5C 116.833,114.5 112.167,114.5 107.5,114.5C 107.482,109.077 106.815,103.744 105.5,98.5C 97.6775,97.3439 89.6775,97.1772 81.5,98C 82.0442,98.7172 82.7109,99.2172 83.5,99.5C 84.5785,104.774 84.5785,110.107 83.5,115.5C 78.5,115.5 73.5,115.5 68.5,115.5C 72.4687,81.4803 76.6354,47.4803 81,13.5C 81.8119,9.31121 81.6453,5.31121 80.5,1.5 Z"/></g>
<g><path style="opacity:1" fill="#050b53" d="M 125.5,-0.5 C 139.5,-0.5 153.5,-0.5 167.5,-0.5C 171.479,1.31481 174.312,4.31481 176,8.5C 176.667,24.5 176.667,40.5 176,56.5C 174.21,62.7858 170.044,66.4524 163.5,67.5C 167.628,82.8105 171.628,98.1438 175.5,113.5C 170.695,114.487 165.695,114.821 160.5,114.5C 156.411,98.3643 152.077,82.3643 147.5,66.5C 144.976,65.1997 142.309,65.1997 139.5,66.5C 139.624,67.1067 139.957,67.44 140.5,67.5C 141.458,67.9528 142.292,68.6195 143,69.5C 143.5,84.4963 143.667,99.4963 143.5,114.5C 138.5,114.5 133.5,114.5 128.5,114.5C 128.667,77.1652 128.5,39.8318 128,2.5C 126.955,1.62656 126.122,0.626561 125.5,-0.5 Z"/></g>
<g><path style="opacity:1" fill="#040b53" d="M 222.5,0.5 C 222.5,6.16667 222.5,11.8333 222.5,17.5C 212.828,17.3335 203.161,17.5002 193.5,18C 194.373,19.045 195.373,19.8783 196.5,20.5C 196.5,30.1667 196.5,39.8333 196.5,49.5C 202.5,49.5 208.5,49.5 214.5,49.5C 215.489,54.9753 215.822,60.642 215.5,66.5C 208.159,66.3337 200.826,66.5003 193.5,67C 194.579,67.956 195.745,68.7894 197,69.5C 197.5,78.8274 197.666,88.1607 197.5,97.5C 205.316,98.4924 213.316,98.8257 221.5,98.5C 221.5,103.833 221.5,109.167 221.5,114.5C 208.5,114.5 195.5,114.5 182.5,114.5C 182.832,77.3296 182.498,40.3296 181.5,3.5C 181.167,2.83333 180.833,2.16667 180.5,1.5C 194.323,0.504183 208.323,0.17085 222.5,0.5 Z"/></g>
<g><path style="opacity:1" fill="#fefefe" d="M 140.5,18.5 C 146.979,17.5093 153.646,17.176 160.5,17.5C 160.5,27.8333 160.5,38.1667 160.5,48.5C 154.833,48.5 149.167,48.5 143.5,48.5C 143.666,39.1607 143.5,29.8274 143,20.5C 142.292,19.6195 141.458,18.9528 140.5,18.5 Z"/></g>
<g><path style="opacity:1" fill="#9094c0" d="M 160.5,48.5 C 160.5,38.1667 160.5,27.8333 160.5,17.5C 153.646,17.176 146.979,17.5093 140.5,18.5C 139.957,18.44 139.624,18.1067 139.5,17.5C 146.803,16.5027 154.137,16.1694 161.5,16.5C 161.828,27.3464 161.494,38.0131 160.5,48.5 Z"/></g>
<g><path style="opacity:1" fill="#f4f5f8" d="M 95.5,18.5 C 98.7805,38.9501 101.447,59.6168 103.5,80.5C 98.5,80.5 93.5,80.5 88.5,80.5C 90.354,59.7703 92.6874,39.1036 95.5,18.5 Z"/></g>
<g><path style="opacity:1" fill="#7e82ae" d="M 196.5,20.5 C 197.494,29.6517 197.827,38.985 197.5,48.5C 203.358,48.1778 209.025,48.5111 214.5,49.5C 208.5,49.5 202.5,49.5 196.5,49.5C 196.5,39.8333 196.5,30.1667 196.5,20.5 Z"/></g>
<g><path style="opacity:1" fill="#565a7b" d="M 147.5,66.5 C 144.941,66.1984 142.607,66.5318 140.5,67.5C 139.957,67.44 139.624,67.1067 139.5,66.5C 142.309,65.1997 144.976,65.1997 147.5,66.5 Z"/></g>
<g><path style="opacity:1" fill="#808392" d="M 105.5,98.5 C 97.9809,98.175 90.6476,98.5084 83.5,99.5C 82.7109,99.2172 82.0442,98.7172 81.5,98C 89.6775,97.1772 97.6775,97.3439 105.5,98.5 Z"/></g>
<g><path style="opacity:1" fill="#36396c" d="M 121.5,105.5 C 122.479,108.625 122.813,111.958 122.5,115.5C 117.305,115.821 112.305,115.487 107.5,114.5C 112.167,114.5 116.833,114.5 121.5,114.5C 121.5,111.5 121.5,108.5 121.5,105.5 Z"/></g>
<g><path style="opacity:1" fill="#878b97" d="M 175.5,113.5 C 176.043,113.56 176.376,113.893 176.5,114.5C 171.014,115.815 165.68,115.815 160.5,114.5C 165.695,114.821 170.695,114.487 175.5,113.5 Z"/></g>
<g><path style="opacity:1" fill="#636696" d="M 181.5,3.5 C 182.498,40.3296 182.832,77.3296 182.5,114.5C 195.5,114.5 208.5,114.5 221.5,114.5C 221.5,109.167 221.5,103.833 221.5,98.5C 213.316,98.8257 205.316,98.4924 197.5,97.5C 205.833,97.5 214.167,97.5 222.5,97.5C 222.5,103.5 222.5,109.5 222.5,115.5C 208.833,115.5 195.167,115.5 181.5,115.5C 181.5,78.1667 181.5,40.8333 181.5,3.5 Z"/></g>
</svg>
