<svg width="100" height="100" viewBox="0 0 100 100" fill="none" xmlns="http://www.w3.org/2000/svg">
<path fill-rule="evenodd" clip-rule="evenodd" d="M60.0359 5.60389C57.8171 2.22847 53.9963 0 49.655 0C45.3137 0 41.4929 2.22852 39.2741 5.604C23.7577 10.0986 12.4138 24.4142 12.4138 41.3793V56.5711C9.82595 59.7691 8.27588 63.8415 8.27588 68.2759C8.27588 78.5598 16.6126 86.8966 26.8966 86.8966L37.2414 86.8966C37.2414 90.1889 38.5493 93.3464 40.8773 95.6745C43.2053 98.0025 46.3628 99.3104 49.6552 99.3104C52.9475 99.3104 56.105 98.0025 58.4331 95.6745C60.7611 93.3464 62.069 90.1889 62.069 86.8966L72.4138 86.8966C82.6977 86.8966 91.0345 78.5598 91.0345 68.2759C91.0345 63.8415 89.4844 59.7691 86.8966 56.5711V41.3793C86.8966 24.4141 75.5525 10.0984 60.0359 5.60389ZM20.6897 56.5711C20.6897 58.4661 20.0393 60.3038 18.8472 61.777C17.408 63.5555 16.5517 65.8045 16.5517 68.2759C16.5517 73.9892 21.1833 78.6207 26.8966 78.6207H72.4138C78.1271 78.6207 82.7586 73.9892 82.7586 68.2759C82.7586 65.8045 81.9024 63.5555 80.4632 61.777C79.2711 60.3038 78.6207 58.4661 78.6207 56.5711V41.3793C78.6207 25.3821 65.6524 12.4138 49.6552 12.4138C33.658 12.4138 20.6897 25.3821 20.6897 41.3793V56.5711ZM46.7292 89.8225C45.9532 89.0465 45.5173 87.994 45.5173 86.8966H53.7931C53.7931 87.994 53.3572 89.0465 52.5811 89.8225C51.8051 90.5986 50.7526 91.0345 49.6552 91.0345C48.5577 91.0345 47.5052 90.5986 46.7292 89.8225Z" fill="#808082"/>
</svg>
